<?xml version="1.0" standalone="no"?>
<!DOCTYPE svg PUBLIC "-//W3C//DTD SVG 20010904//EN"
 "http://www.w3.org/TR/2001/REC-SVG-20010904/DTD/svg10.dtd">
<svg version="1.0" xmlns="http://www.w3.org/2000/svg"
 width="700.000000pt" height="700.000000pt" viewBox="0 0 700.000000 700.000000"
 preserveAspectRatio="xMidYMid meet">
<metadata>
Created by potrace 1.11, written by Peter Selinger 2001-2013
</metadata>
<g transform="translate(0.000000,700.000000) scale(0.100000,-0.100000)"
fill="#000000" stroke="none">
<path d="M3320 6808 c-219 -40 -331 -74 -475 -143 -105 -51 -245 -137 -330
-203 -33 -26 -69 -54 -80 -62 -41 -31 -281 -273 -315 -317 -19 -25 -41 -51
-48 -59 -22 -23 -125 -164 -178 -244 -176 -264 -385 -679 -499 -995 -39 -107
-128 -373 -144 -430 -6 -22 -24 -87 -41 -145 -31 -113 -101 -424 -119 -530 -5
-36 -17 -105 -25 -155 -8 -49 -18 -115 -21 -145 -4 -30 -8 -68 -11 -85 -39
-313 -38 -766 2 -1045 65 -448 196 -805 412 -1120 203 -296 482 -534 817 -694
85 -41 270 -114 306 -121 9 -2 47 -12 85 -24 63 -18 118 -32 184 -45 14 -2 48
-9 75 -15 28 -5 77 -13 110 -16 33 -4 69 -9 80 -11 94 -18 491 -25 665 -11
515 39 966 198 1329 467 345 255 601 621 751 1070 60 178 109 391 126 545 3
33 8 62 9 65 7 11 19 242 19 350 0 99 -8 243 -20 330 -1 14 -5 66 -9 115 -3
50 -8 104 -10 120 -2 17 -7 66 -10 110 -8 121 -15 186 -25 230 -5 22 -16 85
-25 140 -9 55 -26 138 -37 185 -11 47 -21 94 -24 106 -2 11 -15 65 -29 120
-15 54 -28 106 -30 114 -51 198 -196 607 -285 805 -38 83 -164 337 -189 380
-9 17 -29 53 -44 80 -30 55 -26 49 -116 190 -54 84 -192 278 -211 295 -3 3
-30 34 -60 70 -226 269 -510 492 -764 601 -105 45 -108 46 -141 57 -64 23
-142 43 -229 58 -99 18 -353 25 -426 12z m-1498 -4363 c46 -31 60 -56 93 -174
140 -499 464 -840 940 -989 66 -20 59 -19 145 -37 88 -19 182 -33 257 -39 98
-8 158 -49 181 -122 25 -84 -28 -182 -111 -205 -35 -9 -108 -7 -187 5 -14 2
-46 7 -71 10 -264 36 -569 146 -746 267 -23 16 -45 29 -48 29 -10 0 -152 116
-213 174 -55 52 -219 249 -230 276 -3 8 -21 40 -41 70 -113 178 -244 552 -226
646 7 42 63 100 108 113 47 14 106 5 149 -24z"/>
</g>
</svg>
