<?xml version="1.0" encoding="utf-8"?>
<!-- Generator: Adobe Illustrator 22.0.1, SVG Export Plug-In . SVG Version: 6.00 Build 0)  -->
<svg version="1.1" id="Layer_1" xmlns="http://www.w3.org/2000/svg" xmlns:xlink="http://www.w3.org/1999/xlink" x="0px" y="0px"
	 viewBox="0 0 147.3 144.7" style="enable-background:new 0 0 147.3 144.7;" xml:space="preserve">
<g>
	<path d="M51.4,144.7c-2.2,0-4.1-1.5-4.6-3.6c-1.4-6.3-3.2-9.5-5-12.9c-1.3-2.4-2.7-4.9-3.9-8.5c-0.4-1,0.2-2.2,1.2-2.5
		c1-0.4,2.2,0.2,2.5,1.2c1.1,3.2,2.3,5.5,3.6,7.9c1.9,3.5,3.9,7.1,5.4,13.9c0.1,0.3,0.4,0.6,0.8,0.5l10.7-2
		c-1.4-7-3.2-10.2-5.2-13.6c-0.8-1.4-1.6-2.8-2.4-4.5c-0.5-1,0-2.2,1-2.7c1-0.5,2.2,0,2.7,1c0.7,1.5,1.4,2.9,2.2,4.2
		c2.1,3.7,4.3,7.6,5.9,16.1c0,0.1,0,0.2,0,0.3l0,0.7c0.1,1-0.6,1.9-1.6,2.1l-12.6,2.4C51.9,144.6,51.6,144.7,51.4,144.7z M75,140.3
		c-0.9,0-1.8-0.7-2-1.6c-0.2-1.1,0.5-2.1,1.6-2.3l2.1-0.4c0.2,0,0.4-0.2,0.4-0.3c0.1-0.1,0.2-0.3,0.1-0.5c-1.4-6.1-3.2-9.4-4.8-12.3
		c-0.5-1-0.2-2.2,0.8-2.7c1-0.5,2.2-0.2,2.7,0.8c1.6,3,3.6,6.7,5.1,13.3c0.3,1.2,0,2.6-0.6,3.6c-0.7,1.1-1.8,1.8-3.1,2l-2.1,0.4
		C75.3,140.3,75.1,140.3,75,140.3z M105.6,140.2c-1,0-1.9-0.3-2.7-0.9c-1-0.7-1.7-1.9-1.9-3.1c-1-6.7-0.5-10.8,0-14.7
		c0.5-4.3,1.1-8.4-0.4-16.3s-3.4-11.5-5.5-15.3c-2.1-3.9-4.3-8-5.9-16.5c-0.2-1.1,0.5-2.1,1.6-2.3c1.1-0.2,2.1,0.5,2.3,1.6
		c1.5,7.9,3.4,11.5,5.5,15.3c2.1,3.9,4.3,8,5.9,16.5c1.6,8.5,1,13.1,0.4,17.5c-0.5,3.8-0.9,7.4,0,13.6c0,0.3,0.2,0.4,0.3,0.5
		c0.1,0.1,0.3,0.2,0.5,0.1l25.3-4.7c0.4-0.1,0.6-0.4,0.6-0.8c-1-6.9-0.5-11,0-14.9c0.5-4.3,1.1-8.4-0.4-16.3s-3.4-11.5-5.5-15.3
		c-2.1-3.9-4.3-8-5.9-16.5c-0.2-1.1,0.5-2.1,1.6-2.3c1.1-0.2,2.1,0.5,2.3,1.6c1.5,7.9,3.4,11.5,5.5,15.3c2.1,3.9,4.3,8,5.9,16.5
		c1.6,8.5,1,13.1,0.4,17.5c-0.5,3.8-1,7.5,0,13.8c0.4,2.5-1.3,4.8-3.8,5.3l-25.3,4.7C106.2,140.1,105.9,140.2,105.6,140.2z
		 M117.2,126.7c-1.1,0-2-0.8-2-1.9c-0.1-3.8,0.3-6.3,0.8-8.6c0.6-3.3,1.3-6.4-0.2-14c-1.5-7.9-3.4-11.5-5.5-15.3
		c-2.1-3.9-4.3-8-5.9-16.5c-0.2-1.1,0.5-2.1,1.6-2.3c1.1-0.2,2.1,0.5,2.3,1.6c1.5,7.9,3.4,11.5,5.5,15.3c2.1,3.9,4.3,8,5.9,16.5
		c1.6,8.3,0.8,12,0.2,15.5c-0.4,2.2-0.8,4.3-0.7,7.7C119.2,125.7,118.4,126.6,117.2,126.7C117.2,126.7,117.2,126.7,117.2,126.7z
		 M78.5,118.8c-8.7,0-13.1-1.4-17.3-2.8c-4.1-1.3-8.1-2.6-16.1-2.6c-8,0-11.9,1.3-16.1,2.6c-3.7,1.2-7.6,2.4-14.4,2.7
		c-1.3,0.1-2.5-0.4-3.4-1.3c-0.9-0.9-1.4-2.1-1.4-3.4v-2.2c0-1.1,0.9-2,2-2s2,0.9,2,2v2.2c0,0.3,0.1,0.4,0.2,0.5
		c0.1,0.1,0.2,0.2,0.5,0.2c6.3-0.3,9.7-1.4,13.4-2.5c4.3-1.4,8.6-2.8,17.3-2.8s13.1,1.4,17.3,2.8c4.1,1.3,8.1,2.6,16.1,2.6
		c7.4,0,11.2-1,15.1-2.3c1-0.3,2.2,0.2,2.5,1.3c0.3,1.1-0.2,2.2-1.3,2.5C90.7,117.6,86.4,118.8,78.5,118.8z M142.6,118.7
		c-0.1,0-0.1,0-0.2,0c-1.2,0-2.3-0.1-3.4-0.2c-1.1-0.1-1.9-1.1-1.8-2.2c0.1-1.1,1.1-1.9,2.2-1.8c1,0.1,2.1,0.2,3.2,0.2
		c0.3,0,0.4-0.1,0.5-0.2c0.1-0.1,0.2-0.2,0.2-0.5V88.3c0-0.4-0.3-0.7-0.6-0.7c-2.1-0.1-3.9-0.2-5.7-0.5c-1.1-0.2-1.8-1.2-1.7-2.3
		c0.2-1.1,1.2-1.9,2.3-1.7c1.7,0.2,3.4,0.4,5.3,0.5c2.5,0.1,4.5,2.1,4.5,4.7V114c0,1.3-0.5,2.5-1.4,3.4
		C145,118.2,143.8,118.7,142.6,118.7z M78.3,103.2c-8.7,0-13.1-1.4-17.3-2.8c-4.1-1.3-8.1-2.6-16.1-2.6c-8,0-11.7,1.3-15.6,2.6
		c-4,1.4-8.2,2.8-16.9,2.8c-0.1,0-0.2,0-0.3,0l-0.7-0.1c-1-0.1-1.7-1-1.7-2V88.3c0-2.5,2-4.6,4.5-4.7c6.4-0.2,9.9-1.4,13.6-2.5
		c4.3-1.4,8.6-2.8,17.3-2.8s13.1,1.4,17.3,2.8c4.1,1.3,8.1,2.6,16.1,2.6c2.7,0,5.2-0.1,7.4-0.5c1.1-0.2,2.1,0.6,2.3,1.7
		c0.1,1.1-0.6,2.1-1.7,2.3c-2.4,0.3-5,0.5-7.9,0.5c-8.7,0-13.1-1.4-17.3-2.8c-4.1-1.3-8.1-2.6-16.1-2.6c-8,0-11.9,1.3-16.1,2.6
		c-3.8,1.2-7.7,2.5-14.7,2.7c-0.4,0-0.6,0.3-0.6,0.7v10.9c7.1-0.1,10.6-1.3,14.3-2.6c4-1.4,8.2-2.8,16.9-2.8
		c8.7,0,13.1,1.4,17.3,2.8c4.1,1.3,8.1,2.6,16.1,2.6c6,0,9.5-0.7,11.9-1.3c1.1-0.3,2.2,0.4,2.4,1.4s-0.4,2.2-1.4,2.4
		C87.2,102.7,83.3,103.2,78.3,103.2z M36,75c-0.9,0-1.7-0.6-1.9-1.5c-1.3-5.1-2.9-8-4.5-11c-2.1-3.9-4.3-8-5.9-16.5
		c-1.6-8.5-1-13.1-0.4-17.5c0.5-3.8,0.9-7.5,0-13.8c-0.4-2.5,1.3-4.8,3.8-5.3l25.3-4.7c1.3-0.2,2.5,0,3.6,0.8c1,0.7,1.7,1.9,1.9,3.1
		c1,6.7,0.5,10.8,0,14.7c-0.5,4.3-1.1,8.4,0.4,16.3c1.5,7.9,3.4,11.5,5.5,15.3c2.1,3.9,4.3,8,5.9,16.5c0.2,1.1-0.5,2.1-1.6,2.3
		c-1.1,0.2-2.1-0.5-2.3-1.6c-1.5-7.9-3.4-11.5-5.5-15.3c-2.1-3.9-4.3-8-5.9-16.5c-1.6-8.5-1-13.1-0.4-17.5c0.5-3.8,0.9-7.4,0-13.6
		c0-0.3-0.2-0.4-0.3-0.5c-0.1-0.1-0.3-0.2-0.5-0.1l-25.3,4.7c-0.4,0.1-0.6,0.4-0.6,0.8c1,6.9,0.5,11,0,14.9
		c-0.5,4.3-1.1,8.4,0.4,16.3C29,53.1,31,56.7,33,60.5c1.7,3.1,3.4,6.4,4.9,11.9c0.3,1.1-0.4,2.2-1.4,2.4C36.3,74.9,36.2,75,36,75z
		 M52,75c-0.9,0-1.8-0.6-2-1.6c-1.4-6.7-3.2-10-5.1-13.6c-2.1-3.9-4.3-8-5.9-16.5c-1.6-8.3-0.8-12-0.2-15.5c0.4-2.2,0.8-4.3,0.7-7.7
		c0-1.1,0.8-2,1.9-2.1c1.1,0,2,0.8,2.1,1.9c0.1,3.8-0.3,6.3-0.8,8.6c-0.6,3.3-1.3,6.4,0.2,14c1.5,7.9,3.4,11.5,5.5,15.3
		c2,3.6,4,7.4,5.5,14.6c0.2,1.1-0.5,2.1-1.5,2.4C52.2,74.9,52.1,75,52,75z M102.2,61.3c-8.7,0-13.1-1.4-17.3-2.8
		c-4.1-1.3-8.1-2.6-16.1-2.6c-1.1,0-2-0.9-2-2s0.9-2,2-2c8.7,0,13.1,1.4,17.3,2.8c4.1,1.3,8.1,2.6,16.1,2.6c8,0,11.9-1.3,16.1-2.6
		c3.8-1.2,7.7-2.5,14.7-2.7c0.4,0,0.6-0.3,0.6-0.7V40.4c-7.1,0.1-10.6,1.3-14.3,2.6c-4,1.4-8.2,2.8-16.9,2.8
		c-8.7,0-13.1-1.4-17.3-2.8c-4.1-1.3-8.1-2.6-16.1-2.6c-1.5,0-2.9,0-4.3,0.1c-1.1,0.1-2.1-0.8-2.1-1.9c-0.1-1.1,0.8-2.1,1.9-2.1
		c1.4-0.1,2.9-0.1,4.5-0.1c8.7,0,13.1,1.4,17.3,2.8c4.1,1.3,8.1,2.6,16.1,2.6c8,0,11.7-1.3,15.6-2.6c4-1.4,8.2-2.8,16.9-2.8
		c0.1,0,0.2,0,0.3,0l0.7,0.1c1,0.1,1.7,1,1.7,2v12.8c0,2.5-2,4.6-4.5,4.7c-6.4,0.2-9.9,1.4-13.6,2.5
		C115.3,59.9,110.9,61.3,102.2,61.3z M17.8,58.3c-0.2,0-0.4,0-0.6-0.1c-3.4-1.1-6.9-2-12.7-2.3C2,55.9,0,53.8,0,51.3V25.6
		c0-1.3,0.5-2.5,1.4-3.4c0.9-0.9,2.2-1.4,3.4-1.3c6.2,0.2,9.9,1.3,13.2,2.3c1.1,0.3,1.6,1.5,1.3,2.5S18,27.4,16.9,27
		c-3.2-1-6.5-1.9-12.2-2.2c-0.2,0-0.4,0.1-0.5,0.2C4.1,25.1,4,25.3,4,25.6v25.7C4,51.7,4.3,52,4.6,52c6.3,0.2,10.1,1.3,13.8,2.4
		c1.1,0.3,1.6,1.5,1.3,2.5C19.4,57.8,18.7,58.3,17.8,58.3z M17.7,41.9c-0.2,0-0.4,0-0.6-0.1c-1.3-0.4-2.7-0.7-4.2-0.9
		c-1.1-0.2-1.8-1.2-1.7-2.3c0.2-1.1,1.2-1.8,2.3-1.7c1.7,0.3,3.3,0.6,4.8,1.1c1.1,0.3,1.6,1.4,1.3,2.5
		C19.3,41.4,18.5,41.9,17.7,41.9z M102.2,30.2c-8.7,0-13.1-1.4-17.3-2.8c-4.1-1.3-8.1-2.6-16.1-2.6c-2.3,0-4.3,0.1-6.2,0.3
		c-1.1,0.1-2.1-0.7-2.2-1.8c-0.1-1.1,0.7-2.1,1.8-2.2c2-0.2,4.2-0.3,6.6-0.3c8.7,0,13.1,1.4,17.3,2.8c4.1,1.3,8.1,2.6,16.1,2.6
		s11.9-1.3,16.1-2.6c3.7-1.2,7.6-2.5,14.4-2.7c1.3-0.1,2.5,0.4,3.4,1.3c0.9,0.9,1.4,2.1,1.4,3.4v2.2c0,1.1-0.9,2-2,2s-2-0.9-2-2
		v-2.2c0-0.3-0.1-0.4-0.2-0.5c-0.1-0.1-0.2-0.2-0.5-0.2c-6.3,0.3-9.7,1.4-13.4,2.5C115.3,28.8,110.9,30.2,102.2,30.2z M99.4,21.7
		c-0.7,0-1.4-0.4-1.7-1c-2-3.6-3.9-7.4-5.3-15.2c0-0.1,0-0.2,0-0.3l0-0.7c-0.1-1,0.6-1.9,1.6-2.1l12.6-2.4c2.5-0.5,4.9,1.1,5.4,3.6
		c1.4,6.3,3.2,9.5,5,12.9l0.1,0.2c0.5,1,0.2,2.2-0.8,2.7c-1,0.5-2.2,0.2-2.7-0.8l-0.1-0.2c-1.9-3.5-3.9-7.1-5.4-13.9
		c-0.1-0.3-0.4-0.6-0.8-0.5L96.5,6c1.3,6.3,2.9,9.6,4.6,12.7c0.5,1,0.2,2.2-0.8,2.7C100,21.6,99.7,21.7,99.4,21.7z M82,20.1
		c-0.8,0-1.5-0.5-1.8-1.2c-1.1-2.6-2-5.3-2.7-8.5c-0.3-1.2,0-2.6,0.7-3.6c0.7-1.1,1.8-1.8,3.1-2l2.1-0.4c1.1-0.2,2.1,0.5,2.3,1.6
		S85.1,8.1,84,8.3l-2.1,0.4c-0.2,0-0.4,0.2-0.4,0.3c-0.1,0.1-0.2,0.3-0.1,0.5c0.7,2.9,1.5,5.4,2.5,7.8c0.4,1,0,2.2-1,2.6
		C82.6,20.1,82.3,20.1,82,20.1z"/>
</g>
</svg>
