<?xml version="1.0" encoding="utf-8"?>
<!-- Generator: Adobe Illustrator 22.0.1, SVG Export Plug-In . SVG Version: 6.00 Build 0)  -->
<svg version="1.1" id="Layer_1" xmlns="http://www.w3.org/2000/svg" xmlns:xlink="http://www.w3.org/1999/xlink" x="0px" y="0px"
	 viewBox="0 0 172.4 163.9" style="enable-background:new 0 0 172.4 163.9;" xml:space="preserve">
<g>
	<path d="M76,138.4c-0.6-1-1.3-2.2-2.1-4c-1.1-2.3-3.9-3.2-6.1-2.1c-1.1,0.5-1.9,1.5-2.3,2.6c-0.4,1.2-0.4,2.4,0.2,3.4
		c0.8,1.8,1.7,3.3,2.5,4.7c1.5,2.6,3.1,5.2,4.4,10.4l-6.5,1.2c-1.5-5.9-3.3-9.3-5.1-12.6l-0.1-0.2c-1.3-2.3-2.4-4.5-3.4-7.4
		c-0.3-1.2-1.2-2.1-2.3-2.7c-1.1-0.5-2.3-0.6-3.4-0.2c-1.1,0.4-2.1,1.2-2.6,2.3c-0.5,1.1-0.6,2.4-0.2,3.4c1.2,3.6,2.6,6.1,3.9,8.5
		l0.5,0.9c1.7,3.1,3.2,6.1,4.5,11.8c0.8,3.3,3.7,5.5,7,5.5c0,0,0.1,0,0.1,0l0.2,0.1l13.5-2.6c2.2-0.4,3.8-2.5,3.6-4.6v-0.9l0-0.5
		C80.6,146.4,78.2,142.2,76,138.4z"/>
	<path d="M91.7,138.5l-1.3,0.7L91.7,138.5L91.7,138.5c-0.6-1.1-1.5-1.9-2.7-2.3c-1.1-0.3-2.3-0.2-3.4,0.3c-1.1,0.6-1.9,1.5-2.3,2.7
		c-0.3,1.1-0.2,2.3,0.4,3.4c1.3,2.4,2.8,5.1,4.1,9.8l-0.2,0c-1.2,0.2-2.2,0.9-2.9,1.8c-0.7,1-0.9,2.2-0.7,3.5
		c0.4,1.7,1.8,3.1,3.6,3.5l0.1,0.3l1.2-0.2h1.3v-0.2l1-0.2c2-0.3,3.7-1.4,4.9-3.2c1-1.6,1.3-3.7,0.9-5.4
		C95.4,145.5,93.3,141.6,91.7,138.5z"/>
	<path d="M153.1,110.9L153.1,110.9c-1.7-8.9-4-13.1-6.2-17.2c-1.8-3.3-3.8-6.8-5.2-14.5c-0.4-2.5-2.7-4.1-5.2-3.6
		c-1.2,0.2-2.2,0.9-2.9,1.8c-0.7,1-0.9,2.2-0.7,3.4c1.7,8.9,4,13.1,6.2,17.2c1.8,3.3,3.8,6.8,5.2,14.6c1.4,7.2,0.9,10.9,0.4,14.9
		l-0.1,0.6c-0.5,3.5-1,7.5-0.2,13.9l-21.8,4c-0.5-4.6-0.2-7.5,0.2-11.1c0.6-4.4,1.3-9.3-0.4-18.3c-1.7-8.9-4-13.1-6.2-17.3
		c-1.8-3.3-3.8-6.8-5.2-14.5c-0.2-1.2-0.9-2.2-1.8-2.9c-1-0.7-2.2-0.9-3.4-0.7c-1.2,0.2-2.2,0.9-2.9,1.8c-0.7,1-0.9,2.2-0.7,3.4
		c1.7,8.9,4,13.1,6.2,17.2c1.8,3.3,3.8,6.8,5.2,14.6c1.4,7.2,0.9,10.9,0.4,14.9l-0.1,0.6c-0.5,3.9-1.1,8.3,0,15.4
		c0.3,1.9,1.4,3.7,2.9,4.7c1.2,0.9,2.7,1.4,4.2,1.4c0.3,0,0.6,0,1-0.1l25.6-4.7c3.8-0.8,6.4-4.3,5.8-8.1c-0.9-5.9-0.5-9.2,0-13.1
		C154.1,124.9,154.7,119.9,153.1,110.9z"/>
	<path d="M137,129.5L137,129.5c0.6-3.5,1.3-7.5-0.3-15.9c-1.7-8.9-4-13.1-6.2-17.3c-1.8-3.3-3.8-6.8-5.2-14.5
		c-0.2-1.2-0.9-2.2-1.8-2.9c-1-0.7-2.2-0.9-3.4-0.7c-1.2,0.2-2.2,0.9-2.9,1.8c-0.7,1-0.9,2.2-0.7,3.4c1.7,8.9,4,13.1,6.2,17.2
		c1.8,3.3,3.8,6.8,5.2,14.6c1.3,6.8,0.8,9.5,0.3,12.6l-0.1,0.3c-0.5,2.3-1,5.1-0.9,9.1c0,2.5,2,4.4,4.5,4.4l0.2,0
		c2.4-0.2,4.3-2.1,4.3-4.6c-0.1-3.1,0.3-5,0.6-7L137,129.5z"/>
	<path d="M107,120.1c-1.1-0.6-2.4-0.7-3.6-0.4c-3.6,1.2-7.1,2.2-14.3,2.2c-7.5,0-11.2-1.2-15.2-2.4l-0.1,0
		c-4.1-1.4-8.8-2.9-18.1-2.9c-9.1,0-13.6,1.5-18,2.9l-0.6,0.2c-3,0.9-5.8,1.7-10.3,2.1v-0.3c0-2.5-2-4.5-4.5-4.5s-4.5,2-4.5,4.5v2.2
		c0,2,0.8,3.8,2.1,5.2c1.5,1.5,3.3,2.2,5.3,2c7.4-0.3,11.6-1.7,15-2.8l0.4-0.1c3.9-1.2,7.6-2.3,14.9-2.3c7.5,0,11.2,1.2,15.2,2.4
		l0.1,0c4.1,1.4,8.8,2.9,18.1,2.9c8,0,12.5-1.2,17.1-2.6c2.4-0.7,3.7-3.1,3.1-5.6C108.8,121.6,108.1,120.7,107,120.1z"/>
	<path d="M165.5,90.7c-1.8-0.1-3.5-0.3-5-0.5c-2.5-0.4-4.8,1.2-5.2,3.8l0,0.1c-0.2,2.4,1.4,4.6,3.8,5c1.4,0.2,2.8,0.4,4.2,0.4v22.1
		c-0.4,0-0.8-0.1-1.2-0.1c-2.5-0.2-4.7,1.6-4.9,4.1c-0.1,1.2,0.2,2.4,1,3.3c0.8,0.9,1.9,1.5,3.1,1.6c1.1,0.1,2.3,0.2,3.6,0.2h0.2
		c1.7,0,3.5-0.7,5-1.9l0.1-0.1c1.4-1.4,2.1-3.2,2.1-5.2V97.9C172.4,94,169.4,90.9,165.5,90.7z"/>
	<path d="M20.2,115.3l0.7,0c9.3,0,13.8-1.6,17.7-2.9l0.3-0.1c3.7-1.2,7.1-2.4,14.5-2.4c7.5,0,11.2,1.2,15.2,2.4l0.1,0
		c4.1,1.4,8.8,2.9,18.1,2.9c5,0,9.1-0.5,13.5-1.5c2.3-0.5,3.8-2.9,3.4-5.3c-0.2-1.2-1-2.2-2-2.8c-1.1-0.7-2.3-0.8-3.5-0.5
		c-2.3,0.6-5.6,1.2-11.3,1.2c-7.5,0-11.3-1.2-15.2-2.4l-0.1,0c-4.1-1.4-8.8-2.9-18.1-2.9c-9.3,0-13.8,1.6-17.7,2.9
		c-3,1.1-5.9,2.1-11,2.4l0-6.6c6-0.4,9.6-1.5,13.2-2.6l0.8-0.3c3.9-1.2,7.6-2.4,14.9-2.4c7.5,0,11.3,1.2,15.2,2.4l0.1,0
		c4.1,1.4,8.8,2.9,18.1,2.9c2.7,0,5.4-0.2,8.3-0.5c2.4-0.4,4-2.6,3.7-5.1l0-0.1c-0.2-1.2-0.8-2.2-1.8-2.9c-1-0.8-2.2-1-3.4-0.8
		c-2.2,0.4-4.9,0.5-7,0.5c-7.5,0-11.2-1.2-15.2-2.4l-0.1,0c-4.1-1.4-8.8-2.9-18.1-2.9c-9.1,0-13.6,1.5-18,2.9l-0.9,0.3
		c-3.2,1-6.5,2-12.1,2.1c-3.8,0.2-6.9,3.4-6.9,7.2v0.4v1.4v11c0,2.3,1.7,4.3,3.8,4.5L20.2,115.3z"/>
	<path d="M30.7,52.1c1.7,8.9,4,13.1,6.2,17.2l0.2,0.3c1.5,2.8,2.9,5.5,4.1,10c0.5,2,2.2,3.5,4.3,3.5c0.7,0,1.1-0.2,1.4-0.4
		c1-0.3,1.8-1,2.4-1.9c0.7-1.1,0.8-2.3,0.5-3.5c-1.6-5.7-3.3-9.1-5.1-12.4l-0.2-0.4c-1.9-3.6-3.6-6.9-4.8-14.1
		c-1.4-7.2-0.9-10.9-0.4-14.9l0.1-0.6c0.5-3.6,1-7.5,0.2-13.9l21.8-4c0.5,4.6,0.2,7.5-0.2,11.1c-0.6,4.4-1.3,9.3,0.4,18.3
		c1.7,8.9,4,13.1,6.2,17.2c1.8,3.3,3.8,6.8,5.2,14.5c0.4,2.5,2.7,4.1,5.2,3.6c2.5-0.5,4.1-2.7,3.6-5.2c-1.7-8.9-4-13.1-6.2-17.2
		c-1.8-3.3-3.8-6.8-5.2-14.6c-1.4-7.2-0.9-10.9-0.4-14.9l0.1-0.6c0.5-3.9,1.1-8.2,0-15.4c-0.3-1.9-1.4-3.7-2.9-4.7
		c-1.6-1.1-3.4-1.6-5.5-1.2l-25.3,4.7c-3.8,0.8-6.4,4.3-5.8,8.1c0.8,5.8,0.5,9.2,0,13.1C29.7,38.1,29.1,43.1,30.7,52.1z"/>
	<path d="M45.7,33.5L45.7,33.5C45.1,37,44.4,41,46,49.4c1.7,8.9,4,13.1,6.1,17.2l0.1,0.3c1.8,3.3,3.4,6.5,4.7,12.6
		c0.4,2.1,2.3,3.6,4.5,3.6c0.7,0,1.2-0.2,1.4-0.4c2.1-0.8,3.3-2.9,2.9-5.2c-1.5-7.3-3.5-11.2-5.8-15.3c-1.8-3.3-3.8-6.8-5.2-14.6
		c-1.3-6.8-0.8-9.5-0.3-12.6l0.1-0.3c0.5-2.3,1-5.1,0.8-9.4c-0.2-2.4-2.2-4.2-4.7-4.2l-0.1,0c-2.4,0.2-4.2,2.2-4.2,4.7
		c0.1,3.1-0.2,4.9-0.6,7L45.7,33.5z"/>
	<path d="M138.6,70.2c3.2-1,6.5-2,12.1-2.1c3.8-0.2,6.9-3.4,6.9-7.2V48.1c0-2.3-1.7-4.3-3.8-4.5l-0.7-0.1l-0.7,0
		c-9.3,0-13.8,1.6-17.7,2.9l-0.3,0.1c-3.7,1.2-7.1,2.4-14.5,2.4c-7.5,0-11.2-1.2-15.2-2.4l-0.1,0c-4.1-1.4-8.8-2.9-18.1-2.9
		c-1.6,0-3.2,0-4.6,0.1c-1.2,0-2.4,0.5-3.2,1.4c-0.8,0.9-1.2,2.1-1.2,3.2c0,1.2,0.5,2.3,1.4,3.2c0.9,0.8,2.1,1.3,3.3,1.2
		c1.3-0.1,2.7-0.1,4.1-0.1c7.5,0,11.2,1.2,15.2,2.4l0.1,0c4.1,1.4,8.8,2.9,18.1,2.9c9.3,0,13.8-1.6,17.7-2.9c3-1.1,5.9-2.1,11-2.4
		v6.6c-6,0.4-9.7,1.5-13.2,2.6l-0.8,0.2c-3.9,1.2-7.6,2.4-14.9,2.4c-7.5,0-11.2-1.2-15.2-2.4l-0.1,0c-4.1-1.4-8.8-2.9-18.1-2.9
		c-2.5,0-4.5,2-4.5,4.5s2,4.5,4.5,4.5c7.5,0,11.2,1.2,15.2,2.4l0.1,0c4.1,1.4,8.8,2.9,18.1,2.9s14-1.6,18-2.9L138.6,70.2z"/>
	<path d="M20.3,70.4c2,0,3.6-1.2,4.3-3.2c0.4-1.2,0.2-2.5-0.4-3.5c-0.6-1-1.5-1.8-2.6-2.1c-3.3-1-6.9-2.1-12.6-2.4L9,37
		c4.3,0.4,7,1.1,9.5,1.9c1.1,0.4,2.3,0.3,3.4-0.2c1.1-0.5,1.9-1.5,2.3-2.7c0.4-1.2,0.2-2.5-0.4-3.5c-0.6-1-1.5-1.8-2.6-2.1
		C18,29.4,14,28.2,7.5,28c-1.9-0.2-4,0.6-5.4,2C0.8,31.4,0,33.2,0,35.2v25.7C0,64.8,3.1,68,6.9,68c0,0,0,0,0,0
		c5.2,0.3,8.5,1,11.9,2.1C19.4,70.4,20,70.4,20.3,70.4z"/>
	<path d="M21.6,45.2c-1.7-0.5-3.3-0.9-5.2-1.2l-0.1,0c-2.4-0.2-4.6,1.4-5,3.8l0,0.1c-0.2,2.4,1.4,4.6,3.9,5c1.3,0.2,2.5,0.4,3.7,0.8
		c0.6,0.2,1.2,0.2,1.5,0.2c1.9,0,3.7-1.3,4.3-3.2c0.3-1.1,0.2-2.3-0.3-3.3C23.7,46.3,22.7,45.5,21.6,45.2z"/>
	<path d="M76,35.2L76,35.2c0.9,0.8,2.1,1.1,3.3,1c1.8-0.2,3.8-0.3,5.9-0.3c7.5,0,11.2,1.2,15.2,2.4l0.1,0c4.1,1.4,8.8,2.9,18.1,2.9
		c9.4,0,14.2-1.6,17.9-2.9l0.6-0.2c3-0.9,5.8-1.7,10.3-2.1v0.3c0,2.5,2,4.5,4.5,4.5s4.5-2,4.5-4.5v-2.2c0-2-0.8-3.8-2.1-5.2
		c-1.4-1.4-3.4-2.2-5.2-2c-7,0.2-11.2,1.6-14.9,2.8l-0.6,0.2c-3.9,1.2-7.6,2.4-14.9,2.4c-7.5,0-11.2-1.2-15.2-2.4l-0.1,0
		c-4.1-1.4-8.8-2.9-18.1-2.9c-2.5,0-4.8,0.1-6.8,0.3c-1.2,0.1-2.3,0.7-3.1,1.6c-0.8,0.9-1.1,2.1-1,3.3C74.5,33.3,75.1,34.4,76,35.2z
		"/>
	<path d="M109,24.4c0.7,1.4,2.3,2.3,3.9,2.3c0.8,0,1.5-0.2,2.2-0.6c2.1-1.1,2.9-3.8,1.7-6.1c-1.3-2.5-2.6-5-3.8-9.5l6.5-1.2
		c1.5,5.9,3.3,9.3,5.1,12.6l0.2,0.4c1.1,2.2,3.8,3.1,6.1,1.9c1.1-0.5,1.9-1.5,2.2-2.6c0.3-1.1,0.2-2.3-0.3-3.5l-0.4-0.7
		c-1.7-3.1-3.2-6.1-4.5-11.7c-0.8-3.8-4.5-6.3-8.3-5.6L107,2.5c-2.2,0.4-3.8,2.4-3.6,4.7v0.9l0,0.4C104.9,16.6,106.9,20.7,109,24.4z
		"/>
	<path d="M91.4,20.5L91.4,20.5c0.7,1.7,2.3,2.7,4.1,2.7c0.4,0,1.2,0,2-0.5c2.1-1,3.1-3.5,2.2-5.8c-0.7-1.8-1.3-3.6-1.9-5.6l0.1,0
		c1.2-0.2,2.2-0.8,2.9-1.8c0.8-1,1.1-2.2,0.8-3.4c-0.4-2.5-2.7-4.1-5.2-3.6l-2,0.4c-2,0.3-3.7,1.4-4.8,3c-1.1,1.6-1.5,3.8-1.1,5.6
		C89.2,14.7,90.2,17.5,91.4,20.5z"/>
</g>
</svg>
