<svg version="1.1" xmlns="http://www.w3.org/2000/svg" xmlns:xlink="http://www.w3.org/1999/xlink" x="0px" y="0px"
	 viewBox="0 0 720 720" style="enable-background:new 0 0 720 720;" xml:space="preserve">
<g class="g1">
	<path d="M578,360L578,360c0-6.4,5.2-7.7,11.7-7.7l118.7-4c6.4,0,11.7,5.2,11.7,11.7l0,0c0,6.4-5.2,11.7-11.7,11.7l-118.7-4
		C583.2,367.7,578,366.4,578,360z"/>
	<path d="M360,142L360,142c-6.4,0-7.7-5.2-7.7-11.7l-4-118.7C348.3,5.2,353.6,0,360,0l0,0c6.4,0,11.7,5.2,11.7,11.7l-4,118.7
		C367.7,136.8,366.4,142,360,142z"/>
	<path d="M360,578L360,578c6.4,0,7.7,5.2,7.7,11.7l4,118.7c0,6.4-5.2,11.7-11.7,11.7l0,0c-6.4,0-11.7-5.2-11.7-11.7l4-118.7
		C352.3,583.2,353.6,578,360,578z"/>
	<path d="M142,360L142,360c0,6.4-5.2,7.7-11.7,7.7l-118.7,4C5.2,371.7,0,366.4,0,360l0,0c0-6.4,5.2-11.7,11.7-11.7l118.7,4
		C136.8,352.3,142,353.6,142,360z"/>
	<path d="M205.9,205.9L205.9,205.9c-4.6,4.6-9.1,1.7-13.7-2.8l-86.7-81.1c-4.6-4.6-4.6-11.9,0-16.5l0,0c4.6-4.6,11.9-4.6,16.5,0
		l81.1,86.7C207.6,196.7,210.4,201.3,205.9,205.9z"/>
	<path d="M514.1,514.1L514.1,514.1c4.6-4.6,9.1-1.7,13.7,2.8l86.7,81.1c4.6,4.6,4.6,11.9,0,16.5l0,0c-4.6,4.6-11.9,4.6-16.5,0
		L517,527.8C512.4,523.3,509.6,518.7,514.1,514.1z"/>
	<path d="M205.9,514.1L205.9,514.1c4.6,4.6,1.7,9.1-2.8,13.7l-81.1,86.7c-4.6,4.6-11.9,4.6-16.5,0l0,0c-4.6-4.6-4.6-11.9,0-16.5
		l86.7-81.1C196.7,512.4,201.3,509.6,205.9,514.1z"/>
	<path d="M514.1,205.9L514.1,205.9c-4.6-4.6-1.7-9.1,2.8-13.7l81.1-86.7c4.6-4.6,11.9-4.6,16.5,0l0,0c4.6,4.6,4.6,11.9,0,16.5
		L527.8,203C523.3,207.6,518.7,210.4,514.1,205.9z"/>
</g>
<g class="g2">
		<path d="M294.9,192.7L294.9,192.7c-4.9,1.9-7.4-1.7-9.4-6.7L247,96.1c-1.9-4.9,0.5-10.5,5.5-12.4l0,0c4.9-1.9,10.5,0.5,12.4,5.5
			l32.4,92.3C299.2,186.4,299.8,190.7,294.9,192.7z"/>
		<path d="M425.1,527.3L425.1,527.3c4.9-1.9,7.4,1.7,9.4,6.7l38.5,89.9c1.9,4.9-0.5,10.5-5.5,12.4h0c-4.9,1.9-10.5-0.5-12.4-5.5
			l-32.4-92.3C420.8,533.6,420.2,529.3,425.1,527.3z"/>
	<path d="M192.7,425.1L192.7,425.1c1.9,4.9-1.7,7.4-6.7,9.4L96.1,473c-4.9,1.9-10.5-0.5-12.4-5.5l0,0c-1.9-4.9,0.5-10.5,5.5-12.4
		l92.3-32.4C186.4,420.8,190.7,420.2,192.7,425.1z"/>
	<path d="M195.6,287.7L195.6,287.7c-2.1,4.9-6.5,4-11.3,1.9l-90.8-36.3c-4.9-2.1-7.1-7.8-4.9-12.7l0,0c2.1-4.9,7.8-7.1,12.7-4.9
		l88.1,42.4C194.2,280.2,197.8,282.8,195.6,287.7z"/>
	<path d="M524.4,432.3L524.4,432.3c2.1-4.9,6.5-4,11.3-1.9l90.8,36.3c4.9,2.1,7.1,7.8,4.9,12.7v0c-2.1,4.9-7.8,7.1-12.7,4.9
		l-88.1-42.4C525.8,439.8,522.2,437.2,524.4,432.3z"/>
	<path d="M287.7,524.4L287.7,524.4c4.9,2.1,4,6.5,1.9,11.3l-36.3,90.8c-2.1,4.9-7.8,7.1-12.7,4.9h0c-4.9-2.1-7.1-7.8-4.9-12.7
		l42.4-88.1C280.2,525.8,282.8,522.2,287.7,524.4z"/>
	<path d="M432.3,195.6L432.3,195.6c-4.9-2.1-4-6.5-1.9-11.3l36.3-90.8c2.1-4.9,7.8-7.1,12.7-4.9l0,0c4.9,2.1,7.1,7.8,4.9,12.7
		l-42.4,88.1C439.8,194.2,437.2,197.8,432.3,195.6z"/>
	<path d="M527.3,294.9L527.3,294.9c-1.9-4.9,1.7-7.4,6.7-9.4l89.9-38.5c4.9-1.9,10.5,0.5,12.4,5.5v0c1.9,4.9-0.5,10.5-5.5,12.4
		l-92.3,32.4C533.6,299.2,529.3,299.8,527.3,294.9z"/>
</g>
</svg>