<?xml version="1.0" encoding="utf-8"?>
<!-- Generator: Adobe Illustrator 22.0.1, SVG Export Plug-In . SVG Version: 6.00 Build 0)  -->
<svg version="1.1" id="Layer_1" xmlns="http://www.w3.org/2000/svg" xmlns:xlink="http://www.w3.org/1999/xlink" x="0px" y="0px"
	 viewBox="0 0 131 127.6" style="enable-background:new 0 0 131 127.6;" xml:space="preserve">
<path d="M70.1,127.6c-1.3,0-2.4-1-2.5-2.3c-0.1-1.4,0.9-2.6,2.3-2.7c11.6-1.1,21.1-10.3,22.6-21.9c0-0.2,0-0.3,0.1-0.5
	c0.6-5.8,5.5-10.1,11.5-10.1c1,0,2.1-0.1,3.2-0.2c9.7-1.3,17.6-9.3,18.7-19.1c1.1-9.4-4-18.3-12.5-22.3c-5.3-2.5-7.9-8.4-6.1-13.7
	c1-2.9,1.4-6,1.1-9.1c-0.8-11-9.8-19.9-20.7-20.7c-6.1-0.5-12,1.5-16.6,5.5c-4.6,4.1-11.6,4.2-16.5,0.4c-4.5-3.5-10.2-5.2-15.9-4.7
	C27.5,7.2,18.5,16.4,17.8,27.6c-0.2,3.6,0.3,7,1.7,10.3c2.4,5.7,0.5,12.4-4.6,16C8.2,58.6,4.5,66.4,5.1,74.6
	c0.8,11.5,10.1,20.8,21.6,21.6c2.6,0.2,5.1-0.1,7.6-0.7c1.8-0.5,3.7-0.2,5.2,0.9c1.6,1.1,2.6,2.7,2.9,4.6c1.2,8.5,6.7,16,14.6,19.6
	c1.3,0.6,1.8,2.1,1.2,3.3c-0.6,1.3-2.1,1.8-3.3,1.2c-9.5-4.3-16-13.1-17.5-23.4c-0.1-0.5-0.3-0.9-0.7-1.2c-0.2-0.2-0.6-0.3-1.1-0.2
	c-3,0.8-6.1,1.1-9.2,0.9C12.3,100.2,1,89,0.1,74.9c-0.7-10,3.8-19.4,12-25.1c3.1-2.2,4.3-6.4,2.8-10c-1.7-4-2.4-8.2-2.1-12.5
	C13.7,13.6,24.6,2.5,38.3,1.3c7-0.6,13.9,1.5,19.4,5.7c3.1,2.4,7.3,2.3,10.1-0.2c5.6-4.9,12.8-7.3,20.3-6.8
	c13.4,1,24.3,11.9,25.3,25.3c0.3,3.8-0.2,7.6-1.4,11.1c-1,2.9,0.5,6.2,3.5,7.5c10.5,4.9,16.6,15.9,15.4,27.4
	c-1.3,12-11,21.9-23,23.5c-1.3,0.2-2.6,0.3-3.9,0.2c0,0,0,0-0.1,0c-3.3,0-6.1,2.4-6.4,5.6c0,0.2,0,0.4-0.1,0.6
	c-1.7,13.9-13.1,24.9-27.1,26.3C70.3,127.6,70.2,127.6,70.1,127.6z M55.9,122.8 M103,70.2c0.2-1.4-0.7-2.6-2.1-2.9
	c-1.4-0.2-2.6,0.7-2.9,2.1C95.8,83.1,84.2,93,70.3,93c-15.5,0-28-12.6-28-28c0-15.5,12.6-28,28-28c12.1,0,22.8,7.7,26.6,19.2
	c0.4,1.3,1.8,2,3.2,1.6c1.3-0.4,2-1.8,1.6-3.2C97.2,41,84.6,31.9,70.3,31.9c-18.2,0-33,14.8-33,33c0,18.2,14.8,33,33,33
	C86.7,98,100.4,86.3,103,70.2z M93.8,57.2"/>
</svg>
