<?xml version="1.0" encoding="utf-8"?>
<!-- Generator: Adobe Illustrator 22.0.1, SVG Export Plug-In . SVG Version: 6.00 Build 0)  -->
<svg version="1.1" id="Layer_1" xmlns="http://www.w3.org/2000/svg" xmlns:xlink="http://www.w3.org/1999/xlink" x="0px" y="0px"
	 viewBox="0 0 125.5 160.6" style="enable-background:new 0 0 125.5 160.6;" xml:space="preserve">
<g>
	<g>
		<path d="M111.7,80.3"/>
	</g>
	<g>
		<path d="M62.7,160.6C24,160.6,0,135.9,0,96.2c0-19.9,5.6-42.5,15-60.5C27.1,12.7,44.1,0,62.7,0c32.4,0,52.2,36.6,59.4,68
			c1.5,6.7-2.7,13.4-9.4,15c-6.7,1.5-13.4-2.7-15-9.4C92.2,49.4,78.4,25,62.7,25C42.8,25,25,64.8,25,96.2
			c0,26.1,12.7,39.4,37.7,39.4c22.7,0,35.3-11,37.4-32.8c0.7-6.9,6.8-11.9,13.6-11.2c6.9,0.7,11.9,6.8,11.2,13.6
			C121.7,139.9,98.4,160.6,62.7,160.6z"/>
	</g>
</g>
</svg>
