<?xml version="1.0" encoding="utf-8"?>
<!-- Generator: Adobe Illustrator 16.0.0, SVG Export Plug-In . SVG Version: 6.00 Build 0)  -->
<!DOCTYPE svg PUBLIC "-//W3C//DTD SVG 1.1//EN" "http://www.w3.org/Graphics/SVG/1.1/DTD/svg11.dtd">
<svg version="1.1" id="Layer_1" xmlns="http://www.w3.org/2000/svg" xmlns:xlink="http://www.w3.org/1999/xlink" x="0px" y="0px"
	 width="354.191px" height="354.192px" viewBox="116.079 242.361 354.191 354.192"
	 enable-background="new 116.079 242.361 354.191 354.192" xml:space="preserve">
<path d="M449.133,242.361H137.218c-11.674,0-21.139,9.465-21.139,21.139v311.915c0,11.674,9.465,21.139,21.139,21.139h311.915
	c11.673,0,21.138-9.465,21.138-21.139V263.5C470.271,251.826,460.806,242.361,449.133,242.361z M247.97,378.442
	c11.066-12.537,27.204-20.501,45.205-20.501c17.989,0,34.128,7.965,45.2,20.501c9.388,10.644,15.132,24.561,15.132,39.831
	c0,33.264-27.067,60.331-60.332,60.331c-33.27,0-60.337-27.067-60.337-60.331C232.838,403.01,238.582,389.085,247.97,378.442z
	 M432.989,559.271H153.362V378.442h50.778c-5.465,12.186-8.584,25.639-8.584,39.831c0,53.831,43.794,97.614,97.619,97.614
	s97.614-43.783,97.614-97.614c0-14.191-3.119-27.651-8.584-39.831h50.783V559.271z M432.989,318.902
	c0,9.394-7.619,17.007-17.019,17.007h-22.229c-9.399,0-17.019-7.613-17.019-17.007v-22.246c0-9.393,7.619-17.007,17.019-17.007
	h22.229c9.399,0,17.019,7.614,17.019,17.007V318.902z"/>
</svg>
