<?xml version="1.0" encoding="utf-8"?>
<!-- Generator: Adobe Illustrator 22.0.1, SVG Export Plug-In . SVG Version: 6.00 Build 0)  -->
<svg version="1.1" id="Layer_1" xmlns="http://www.w3.org/2000/svg" xmlns:xlink="http://www.w3.org/1999/xlink" x="0px" y="0px"
	 viewBox="0 0 81.3 81" style="enable-background:new 0 0 81.3 81;" xml:space="preserve">
<path d="M48.3,50.1c0,6.9,5.9,12.2,13.7,12.2c4.8,0,9.6-2,13-5.4c2.8-2.8,6.1-7.8,6.1-16.2C81.3,18.2,63,0,40.6,0
	C18.2,0,0,18.2,0,40.6C0,62.9,18.4,81,41.1,81c3,0,5.5-2.5,5.5-5.5c0-3-2.5-5.5-5.5-5.5C24.5,70,11,56.8,11,40.6
	C11,24.3,24.3,11,40.6,11C57,11,70.3,24.3,70.3,40.6c0,3.6-1,6.5-2.9,8.4c-1.4,1.4-3.4,2.2-5.3,2.2c-1,0-2-0.2-2.4-0.6
	c1.2-2.7,2.7-6.7,2.7-10c0-12-9.7-21.7-21.7-21.7s-21.7,9.7-21.7,21.7s9.7,21.7,21.7,21.7c3,0,5.5-2.5,5.5-5.5c0-3-2.5-5.5-5.5-5.5
	c-5.9,0-10.7-4.8-10.7-10.7s4.8-10.7,10.7-10.7s10.7,4.8,10.7,10.7c0,1.1-1.2,4.4-2.4,6.9C48.5,48.3,48.3,49.2,48.3,50.1z"/>
</svg>
