<?xml version="1.0" encoding="utf-8"?>
<!-- Generator: Adobe Illustrator 16.0.0, SVG Export Plug-In . SVG Version: 6.00 Build 0)  -->
<!DOCTYPE svg PUBLIC "-//W3C//DTD SVG 1.1//EN" "http://www.w3.org/Graphics/SVG/1.1/DTD/svg11.dtd">
<svg version="1.1" id="Layer_1" xmlns="http://www.w3.org/2000/svg" xmlns:xlink="http://www.w3.org/1999/xlink" x="0px" y="0px"
	 width="33.594px" height="33.594px" viewBox="0 0 33.594 33.594" enable-background="new 0 0 33.594 33.594" xml:space="preserve">
<path d="M30.689,9.546c-0.979,0.435-2.03,0.728-3.134,0.86c1.126-0.677,1.99-1.746,2.398-3.021c-1.055,0.625-2.223,1.08-3.466,1.325
	c-0.996-1.061-2.413-1.723-3.984-1.723c-3.015,0-5.459,2.444-5.459,5.458c0,0.428,0.049,0.844,0.141,1.245
	c-4.537-0.228-8.559-2.401-11.251-5.704c-0.47,0.806-0.738,1.744-0.738,2.744c0,1.894,0.963,3.565,2.428,4.544
	C6.729,15.246,5.887,15,5.151,14.591c0,0.022,0,0.045,0,0.069c0,2.644,1.882,4.85,4.379,5.352c-0.458,0.124-0.941,0.191-1.438,0.191
	c-0.352,0-0.694-0.034-1.027-0.099c0.695,2.169,2.71,3.747,5.099,3.792c-1.868,1.464-4.223,2.337-6.78,2.337
	c-0.441,0-0.875-0.026-1.302-0.077c2.416,1.549,5.286,2.451,8.369,2.451c10.041,0,15.531-8.316,15.531-15.529
	c0-0.235-0.006-0.472-0.017-0.706C29.032,11.602,29.958,10.641,30.689,9.546z"/>
</svg>
