<?xml version="1.0" encoding="utf-8"?>
<!-- Generator: Adobe Illustrator 22.0.1, SVG Export Plug-In . SVG Version: 6.00 Build 0)  -->
<svg version="1.1" id="Layer_1" xmlns:sketch="http://www.bohemiancoding.com/sketch/ns"
	 xmlns="http://www.w3.org/2000/svg" xmlns:xlink="http://www.w3.org/1999/xlink" x="0px" y="0px" viewBox="0 0 185 30"
	 style="enable-background:new 0 0 185 30;" xml:space="preserve">
<path d="M5,9.3L1.7,9.4l0.3-6L0.1,3.5l0-2.5l6.1-0.2l0.3,2.5L4.5,3.3L5,9.3L5,9.3z M7.2,9.3L6.9,1.2l3.3-0.4l0,3.3
	c0.7-0.4,1.3-0.6,1.8-0.6c0.2,0,0.4,0,0.6,0.1c0.5,0.2,0.9,0.7,1.2,1.4C14,5.5,14.1,6.2,14.1,7v0.2c0,0.8-0.1,1.5-0.3,2.1l-2.8,0
	c0-0.1,0-0.4,0.1-0.9c0.1-0.5,0.1-1,0.2-1.2c0-0.2,0-0.4,0-0.5c0-0.7-0.2-1-0.5-1c-0.2,0-0.4,0.1-0.5,0.3C10.1,6,10,6.2,10,6.5
	l0.1,2.8L7.2,9.3L7.2,9.3z M17.3,7.2c0.1,0.1,0.2,0.2,0.4,0.3c0.2,0.1,0.5,0.2,0.9,0.2c0,0,0,0,0,0c0.4,0,0.9-0.1,1.5-0.4L21,8.7
	c-0.8,0.5-1.7,0.7-2.6,0.7c-0.3,0-0.6,0-0.9-0.1c-1-0.2-1.7-0.6-2.2-1.3c-0.4-0.5-0.7-1.2-0.7-1.8c0-0.2,0-0.4,0-0.6
	C14.8,4.7,15.3,4,16,3.5c0.6-0.4,1.2-0.6,1.9-0.6c0.2,0,0.4,0,0.7,0.1c0.8,0.1,1.4,0.4,1.9,0.9c0.5,0.5,0.8,1.4,0.9,2.6L17.3,7.2
	L17.3,7.2z M18.8,5.2c-0.1-0.2-0.2-0.4-0.3-0.5c-0.1-0.1-0.2-0.1-0.4-0.1c-0.1,0-0.2,0-0.3,0c-0.1,0-0.3,0.1-0.4,0.3
	s-0.2,0.3-0.2,0.5L18.8,5.2L18.8,5.2z M168.3,3.8l0.3,9.2l-3.5,0.1l0.4-9.2L168.3,3.8L168.3,3.8z M169.8,12.9L169.6,6l3.1-0.2v0.9
	c0.7-0.5,1.3-0.7,2-0.7c0.1,0,0.3,0,0.4,0c0.7,0.1,1.2,0.5,1.6,1.1c0.4,0.7,0.6,1.5,0.7,2.4c0,0.1,0,0.2,0,0.3c0,1.1-0.2,2.1-0.5,3
	l-3,0c0-0.1,0-0.5,0.1-1c0.1-0.8,0.2-1.4,0.2-1.7c0-0.2,0-0.4,0-0.6c0-0.7-0.2-1.1-0.5-1.1c-0.2,0-0.4,0.1-0.6,0.3
	c-0.2,0.2-0.2,0.4-0.2,0.7l0.1,3.4L169.8,12.9L169.8,12.9z M181.8,5.9c1,0,1.9,0.3,2.7,1l-2,1.8c-0.2-0.2-0.4-0.3-0.6-0.3
	c-0.2,0-0.3,0-0.4,0.1C181.1,8.7,181,9,181,9.4c0,0.2,0.1,0.5,0.3,0.7c0.1,0.2,0.3,0.3,0.5,0.3c0.1,0,0.3,0.1,0.4,0.1
	c0.3,0,0.7-0.2,1-0.5l1.8,1.6c-0.7,0.9-1.7,1.4-3.1,1.4c-1.1,0-1.9-0.3-2.6-0.9c-0.7-0.6-1.1-1.5-1.1-2.5c0-1,0.4-1.9,1.1-2.6
	C179.9,6.3,180.8,5.9,181.8,5.9L181.8,5.9z M77.9,6.9c-1.2-0.5-2.4-0.8-3.8-0.8c-2.4,0-4.5,0.8-6.2,2.4c-1.7,1.4-2.6,3.2-2.6,5.4
	c0,1.7,0.6,3.1,1.7,4.2c1.1,0.9,2.5,1.5,4.4,2c-1.1,0.5-2.2,1.1-3.3,1.9l3.3,1.9c0.6-0.4,1.1-0.6,1.6-0.6c0.2,0,0.4,0,0.5,0.1
	c0.5,0.2,0.7,0.5,0.7,0.9c0,0,0,0.1,0,0.2c-0.1,0.6-0.4,0.9-1.1,1.1c-0.3,0.1-0.5,0.1-0.8,0.1c-0.7,0-1.4-0.2-2.3-0.5L66.3,28
	c3.4,1.3,6.3,1.9,8.8,1.9c0.4,0,0.9,0,1.3-0.1c2.3-0.2,4-1,5-2.4c0.5-0.7,0.8-1.5,0.8-2.4c0-0.6-0.1-1.2-0.4-1.8
	c-0.6-1.6-1.8-2.7-3.6-3.5c1.5-0.4,2.6-1.1,3.4-2.1c0.9-1.1,1.3-2.3,1.3-3.7c0-2.3-0.9-4.1-2.7-5.5l1.6-2.3l-3.4-1.4L77.9,6.9z
	 M72.6,11.4c0.4-0.5,1-0.7,1.6-0.7s1.2,0.2,1.6,0.7c0.4,0.5,0.7,1.1,0.7,1.8c0,0.7-0.2,1.3-0.7,1.8c-0.4,0.5-1,0.7-1.6,0.7
	S73,15.4,72.6,15c-0.4-0.5-0.7-1.1-0.7-1.8C71.9,12.5,72.2,11.9,72.6,11.4z M57.4,6.9c-1.2-0.5-2.4-0.8-3.8-0.8
	c-2.4,0-4.5,0.8-6.2,2.4c-1.7,1.4-2.6,3.2-2.6,5.4c0,1.7,0.6,3.1,1.7,4.2c1.1,0.9,2.5,1.5,4.4,2c-1.1,0.5-2.2,1.1-3.3,1.9l3.3,1.9
	c0.6-0.4,1.1-0.6,1.6-0.6c0.2,0,0.4,0,0.5,0.1c0.5,0.2,0.7,0.5,0.7,0.9c0,0,0,0.1,0,0.2c-0.1,0.6-0.4,0.9-1.1,1.1
	c-0.3,0.1-0.5,0.1-0.8,0.1c-0.7,0-1.4-0.2-2.3-0.5L45.8,28c3.4,1.3,6.3,1.9,8.8,1.9c0.4,0,0.9,0,1.3-0.1c2.3-0.2,4-1,5-2.4
	c0.5-0.7,0.8-1.5,0.8-2.4c0-0.6-0.1-1.2-0.4-1.8c-0.6-1.6-1.8-2.7-3.6-3.5c1.5-0.4,2.6-1.1,3.4-2.1c0.9-1.1,1.3-2.3,1.3-3.7
	c0-2.3-0.9-4.1-2.7-5.5l1.6-2.3l-3.4-1.4L57.4,6.9z M52.1,11.4c0.4-0.5,1-0.7,1.6-0.7c0.6,0,1.2,0.2,1.6,0.7
	c0.4,0.5,0.7,1.1,0.7,1.8c0,0.7-0.2,1.3-0.7,1.8c-0.4,0.5-1,0.7-1.6,0.7c-0.6,0-1.1-0.2-1.6-0.7c-0.4-0.5-0.7-1.1-0.7-1.8
	C51.4,12.5,51.6,11.9,52.1,11.4z M95.6,0.6L88,23.9l6.7,1.9l2.3-9.1l4.5,7.3l4.2-7.3l3.2,8.4l6.7-0.8l-8.5-23.8l-5.7,9.8L95.6,0.6
	L95.6,0.6z M128.7,8.3c-0.9-0.3-1.8-0.4-2.8-0.4c-2.4,0-4.5,0.8-6.1,2.4c-1.7,1.5-2.5,3.6-2.5,6.3c0,2.8,0.8,4.9,2.5,6.3
	c1.6,1.4,3.7,2.2,6.1,2.2c1.4,0,2.4-0.4,3.1-1.1l0.1,1.2l7.8-0.4L134.8,7l-6.1,0.4L128.7,8.3L128.7,8.3L128.7,8.3z M126.6,13.4
	c0.7,0,1.3,0.3,1.7,0.8c0.5,0.5,0.7,1.3,0.7,2.3c0,1-0.2,1.8-0.7,2.3c-0.5,0.5-1.1,0.8-1.7,0.8c-0.7,0-1.3-0.3-1.7-0.8
	c-0.5-0.5-0.7-1.3-0.7-2.3c0-1,0.2-1.8,0.7-2.3C125.3,13.7,125.9,13.4,126.6,13.4z M149.5,24.7l-0.2-8.6c0-0.6,0.2-1.2,0.6-1.7
	c0.4-0.5,0.9-0.7,1.5-0.7c0.9,0,1.4,0.9,1.4,2.8c0,0.4,0,0.9-0.1,1.4c-0.1,0.8-0.2,2.2-0.4,4.3c-0.2,1.3-0.3,2.1-0.3,2.5l7.6,0.1
	c0.9-2.3,1.3-4.8,1.3-7.6c0-0.2,0-0.5,0-0.7c-0.1-2.4-0.7-4.5-1.7-6.2c-1.1-1.6-2.4-2.5-4.1-2.8c-0.3,0-0.6-0.1-0.9-0.1
	c-1.5,0-3.2,0.6-4.9,1.7V6.9l-7.9,0.6l0.5,17.4L149.5,24.7L149.5,24.7z M27.3,22.1l14.6-0.4l-0.4-6.6h-7.4L34,13.1h5.7l-0.1-4.8
	L34,8.5l-0.1-2l7-0.1l-0.3-6.2L27.3,0.8L27.3,22.1L27.3,22.1z"/>
</svg>
