<?xml version="1.0" encoding="utf-8"?>
<!-- Generator: Adobe Illustrator 23.0.2, SVG Export Plug-In . SVG Version: 6.00 Build 0)  -->
<svg version="1.1" id="Layer_1" xmlns="http://www.w3.org/2000/svg" xmlns:xlink="http://www.w3.org/1999/xlink" x="0px" y="0px"
	 viewBox="0 0 506.9 190.8" style="enable-background:new 0 0 506.9 190.8;" xml:space="preserve">
<style type="text/css">
	.eggbg{fill:#FFFFFF;}
	.yolk{fill:#FFC430;}
</style>
<path class="eggbg" d="M105.3,16.8C94.9,6.5,84.8,1.5,74.3,1.5h-0.2h-0.3c-10.5,0-20.4,4.9-31,15.3C18.3,40.9,1.7,87.7,1.5,116.3
	c-0.1,19.3,7.4,37.6,21.2,51.4c13.8,13.8,32,21.5,51.4,21.6c19.4-0.1,37.6-7.8,51.4-21.6c13.8-13.8,21.3-32.1,21.2-51.4
	C146.5,87.7,129.8,40.9,105.3,16.8"/>
<path class="yolk" d="M136.6,140.7c1-3.4,1.6-6.9,1.9-10.5c2.4-29.7-19.7-55.7-49.4-58.1C59.5,69.8,33.4,91.9,31,121.6
	c-2.4,29.7,19.7,55.8,49.4,58.2c10,0.8,19.6-1.2,28-5.3C121.3,166.8,131.4,154.9,136.6,140.7"/>
<path d="M81.2,153.6c-3.7,0.7-7.4,1.1-11.1,1.1h0c-23.4,0-39.2-14.8-42.1-17.7c-1.7-1.7-1.7-4.5,0-6.1c1-1,2-1.5,3-1.5
	c1,0,2.1,0.5,3.2,1.6c0.2,0.1,0.4,0.3,0.6,0.5c4.1,3.6,16.6,14.5,35.3,14.5c3.1,0,6.2-0.3,9.3-0.9c24.2-4.6,32.3-21.6,35.1-31.4
	c0.7-2.7,2.7-3.9,5.2-3.3c2.3,0.5,3.8,2.9,3.3,5.2C121.9,120.8,114.3,147.2,81.2,153.6 M56.5,102.9c2.7,0,4.8-2.2,4.8-4.9V84.2
	c0-2.7-2.2-4.8-4.8-4.8c-2.7,0-4.9,2.2-4.9,4.8v13.9C51.7,100.7,53.9,102.9,56.5,102.9 M86.1,102.9c2.7,0,4.8-2.2,4.8-4.9V84.2
	c0-2.7-2.2-4.8-4.8-4.8c-2.7,0-4.8,2.2-4.8,4.8v13.9C81.3,100.7,83.4,102.9,86.1,102.9 M106.4,15.7c24.8,24.4,41.6,71.7,41.8,100.6
	c0.1,19.7-7.5,38.3-21.6,52.5c-14.1,14.1-32.7,21.9-52.5,22.1c-19.8-0.1-38.4-8-52.5-22.1C7.5,154.6-0.1,136,0,116.3
	C0.2,87.4,17,40.1,41.8,15.7C52.7,5,62.9,0,73.9,0l0.2,0l0.2,0C85.2,0,95.6,5.1,106.4,15.7 M74.1,182.9c36.5-0.3,66-29.9,65.7-66.1
	c-0.2-26.9-16.6-72.8-39.7-95.6C91,12.1,82.8,7.9,74.3,7.9h-0.2h-0.2c-8.5,0-16.7,4.2-25.8,13.2C24.9,44,8.6,89.8,8.4,116.8
	c-0.1,17.5,6.7,34,19.2,46.5C40.1,175.8,56.6,182.7,74.1,182.9"/>
<path d="M185.8,74.9c0.1,0.8,0.8,1.7,0.8,3.4c0,6.3-4.8,11-11.8,11c-4.3,0-7.7,0.6-7.7,2.7c0,0.4,0.1,0.7,0.4,1.1
	c2.2-0.7,4.3-1.1,7.3-1.1c8.7,0,15.6,3.2,15.6,9.8c0,6.8-6.6,9.9-15.6,9.9c-9.1,0-15.7-3-15.7-9.9c0-1.9,1-3.5,2.1-4.9
	c-1.1-1.2-1.7-2.7-1.7-4.4c0-3.5,2.1-6.6,6.5-7.3c-1.9-1.7-3-4.1-3-6.9c0-6.1,5.2-10.7,11.8-10.7c3,0,5.5,1,7.4,2.6
	c1.2-1.6,3-2.6,5.1-2.6h0.7c1.4,0,2.4,1.3,2.4,2.9c0,1.6-1.1,2.9-2.4,2.9h-0.7C186.2,73.3,185.7,74,185.8,74.9z M174.9,104.7
	c4.3,0,7.3-0.8,7.3-3.3c0-2.5-3-3.4-7.3-3.4c-4.4,0-7.4,0.9-7.4,3.4C167.5,103.9,170.5,104.7,174.9,104.7z M174.9,74.6
	c-2.3,0-4.1,1.9-4.1,4.1c0,2.2,1.8,4,4.1,4c2.2,0,4-1.8,4-4C178.9,76.4,177.1,74.6,174.9,74.6z M222.5,88.4h-22.4
	c1.4,3.9,5.1,6.5,9.2,6.5c2.9,0,6.3-1.1,8.3-2.9c1.1-1.2,3.2-1.2,4.7,0.1c1.5,1.2,1.8,3.4,0.7,4.6c-3.4,3.4-8.6,5.3-13.7,5.3
	c-9.8,0-18.1-7.4-18.1-17.3c0-9.8,8-17.2,17.8-17.2c9.6,0,17.5,7.6,17.5,17.2C226.5,86.6,224.7,88.4,222.5,88.4z M217.9,81.5
	c-1.4-3.9-4.8-6.5-9-6.5c-4.1,0-7.5,2.5-8.9,6.5H217.9z M231.3,64c0-1.8,1.8-3.3,3.9-3.3c2.1,0,3.9,1.5,3.9,3.3v4.5h2.8
	c1.6,0,3,1.6,3,3.5c0,1.9-1.4,3.5-3,3.5h-2.8v16c0,1.1,0.8,2,1.9,2h0.9c1.6,0,3,1.7,3,3.8c0,2.1-1.4,3.8-3,3.8h-0.9
	c-5.9,0-9.8-2.8-9.8-9.1V75.5h-1c-1.6,0-3-1.6-3-3.5c0-1.9,1.3-3.5,3-3.5h1V64z M287.1,93.3c1.5,1.5,1.8,3.8,0.2,5.2
	c-3.1,2.7-7,4.3-11.4,4.3c-9.9,0-17.8-7.4-17.8-17.3c0-9.9,7.9-17.2,17.8-17.2c4.3,0,8.3,1.5,11.4,4.2c1.6,1.5,1.4,3.6-0.2,5.2
	c-1.5,1.5-3.8,1.7-5.1,0.5c-1.6-1.4-3.8-2.3-6.1-2.3c-5.3,0-9.5,4.3-9.5,9.6c0,5.2,4.2,9.6,9.5,9.6c2.3,0,4.5-0.9,6.1-2.3
	C283.3,91.6,285.6,91.8,287.1,93.3z M311.3,68.7c1.7,0.4,3,1.9,3,3.7c0,2.1-1.7,3.8-3.8,3.8c-0.3,0-0.9-0.1-2.3-0.2
	c-4.3-0.2-7.6,3.8-7.6,8.4V99c0,1.9-1.8,3.4-4,3.4c-2.2,0-4-1.5-4-3.4V72c0-1.7,1.7-3.2,3.7-3.2c2,0,3.7,1.4,3.7,3.2v1.8h0.1
	c1.7-2.9,4.1-5.5,8.4-5.5C309.4,68.3,310.3,68.5,311.3,68.7z M337.3,98.4l-0.2-0.1c-2.3,2.8-6.1,4.6-9.9,4.6
	c-10,0-13.8-5.2-13.8-11.5c0-6.8,3.8-11.5,13.8-11.5c4.9,0,7.6,2.3,9.3,4.1l0.2-0.1v-4.2c0-2.3-3.2-4.1-7.1-4.1
	c-3.8,0-6.7,0.8-8.9,1.6c-1.5,0.7-3.4-0.2-4.1-2c-0.7-1.7-0.1-3.6,1.2-4.3c3.3-1.6,7.4-2.5,11.8-2.5c7.9,0,15.1,4.7,15.1,11.3v19.6
	c0,1.9-1.7,3.2-3.7,3.2c-2,0-3.7-1.2-3.7-3.2V98.4z M329,86.8c-6,0-7.3,1.9-7.3,4.5c0,2.8,1.4,4.7,7.3,4.7c4.7,0,7.6-2.2,7.6-4.7
	C336.6,88.9,333.7,86.8,329,86.8z M377,93.3c1.5,1.5,1.8,3.8,0.2,5.2c-3.1,2.7-7,4.3-11.4,4.3c-9.9,0-17.8-7.4-17.8-17.3
	c0-9.9,7.9-17.2,17.8-17.2c4.3,0,8.3,1.5,11.4,4.2c1.6,1.5,1.4,3.6-0.2,5.2c-1.5,1.5-3.8,1.7-5.1,0.5c-1.6-1.4-3.8-2.3-6.1-2.3
	c-5.3,0-9.5,4.3-9.5,9.6c0,5.2,4.2,9.6,9.5,9.6c2.3,0,4.5-0.9,6.1-2.3C373.3,91.6,375.6,91.8,377,93.3z M381.4,62.6
	c0-1.9,1.8-3.4,4-3.4c2.2,0,4,1.5,4,3.4V99c0,1.9-1.8,3.4-4,3.4c-2.2,0-4-1.5-4-3.4V62.6z M410.3,96.3c1.2,1.3,0.9,3.5-0.8,5
	c-1.6,1.3-3.8,1.5-5,0l-11.7-12.8c-0.7-0.8-1.1-1.7-1.1-2.9s0.4-2.1,1.1-2.9l11.6-12.8c1.2-1.5,3.4-1.3,5,0c1.7,1.5,2,3.7,0.8,5
	l-9.5,10.7L410.3,96.3z M419.2,58.5c2.5,0,4.4,2,4.4,4.4c0,2.5-2,4.4-4.4,4.4c-2.5,0-4.4-2-4.4-4.4
	C414.8,60.5,416.7,58.5,419.2,58.5z M415.2,72.2c0-1.9,1.8-3.4,4-3.4c2.2,0,4,1.5,4,3.4V99c0,1.9-1.8,3.4-4,3.4c-2.2,0-4-1.5-4-3.4
	V72.2z M450.9,83.2c0-4-3.1-7.2-7-7.2c-4,0-7.1,3.2-7.1,7.2V99c0,1.9-1.8,3.4-4,3.4c-2.2,0-4-1.5-4-3.4V72c0-1.9,1.8-3.2,3.8-3.2
	c2,0,3.9,1.3,3.9,3.2v2.5h0.1c2-3,5.1-6.1,10.1-6.1c7.5,0,12.2,5.2,12.2,13.8V99c0,1.9-1.7,3.4-3.9,3.4c-2.2,0-4.1-1.5-4.1-3.4V83.2
	z M488.8,75.7c0.1,0.8,0.8,1.7,0.8,3.4c0,6.3-4.8,11-11.8,11c-4.3,0-7.7,0.6-7.7,2.7c0,0.4,0.1,0.7,0.4,1.1c2.2-0.7,4.3-1.1,7.3-1.1
	c8.7,0,15.6,3.2,15.6,9.8c0,6.8-6.6,9.8-15.6,9.8c-9.1,0-15.7-3-15.7-9.8c0-1.9,1-3.5,2.1-4.9c-1.1-1.2-1.7-2.7-1.7-4.4
	c0-3.5,2.1-6.6,6.5-7.3c-1.9-1.7-3-4.1-3-6.9c0-6.1,5.2-10.7,11.8-10.7c3,0,5.5,1,7.4,2.6c1.2-1.6,3-2.6,5.1-2.6h0.7
	c1.3,0,2.4,1.3,2.4,2.9c0,1.6-1.1,2.9-2.4,2.9h-0.7C489.2,74.1,488.7,74.8,488.8,75.7z M477.8,105.5c4.3,0,7.3-0.8,7.3-3.3
	s-3-3.4-7.3-3.4c-4.4,0-7.4,0.9-7.4,3.4S473.4,105.5,477.8,105.5z M477.8,75.4c-2.2,0-4.1,1.9-4.1,4.1c0,2.2,1.8,4,4.1,4
	c2.2,0,4-1.8,4-4C481.8,77.2,480,75.4,477.8,75.4z M501.1,102.4c-3.2,0-5.9-2.7-5.9-5.9c0-3.2,2.7-5.8,5.9-5.8
	c3.2,0,5.8,2.6,5.8,5.8C506.9,99.8,504.3,102.4,501.1,102.4z M501.1,91.4c-2.9,0-5.2,2.3-5.2,5.2c0,2.9,2.3,5.2,5.2,5.2
	c2.8,0,5.1-2.3,5.1-5.2C506.2,93.7,503.9,91.4,501.1,91.4z M502.7,100.2l-1.4-2.7h-1.6v2.7h-1.3v-7.5h3.4c1.4,0,2.5,1.1,2.5,2.4
	c0,1-0.6,1.8-1.5,2.3l1.5,2.9H502.7z M501.7,96.2c0.6,0,1-0.5,1-1.1c0-0.5-0.4-1-1-1h-2.1v2.1H501.7z M162.6,125.7
	c0-0.9,0.9-1.7,2-1.7h11.9c0.9,0,1.7,0.8,1.7,1.9c0,1.1-0.8,1.9-1.7,1.9h-10v4.7h8c0.9,0,1.7,0.8,1.7,1.9c0,1.1-0.8,1.9-1.7,1.9h-8
	v4.8h10c0.9,0,1.7,0.8,1.7,1.9s-0.8,1.9-1.7,1.9h-11.9c-1.1,0-2-0.8-2-1.7V125.7z M193.3,132c0.1,0.4,0.4,0.9,0.4,1.7
	c0,3.1-2.4,5.4-5.8,5.4c-2.1,0-3.8,0.3-3.8,1.3c0,0.2,0.1,0.4,0.2,0.5c1.1-0.3,2.1-0.5,3.6-0.5c4.3,0,7.8,1.6,7.8,4.9
	c0,3.4-3.3,4.9-7.8,4.9c-4.5,0-7.8-1.5-7.8-4.9c0-0.9,0.5-1.8,1-2.4c-0.6-0.6-0.9-1.3-0.9-2.2c0-1.7,1.1-3.3,3.2-3.6
	c-0.9-0.8-1.5-2-1.5-3.4c0-3,2.6-5.3,5.9-5.3c1.5,0,2.7,0.5,3.7,1.3c0.6-0.8,1.5-1.3,2.5-1.3h0.4c0.7,0,1.2,0.6,1.2,1.4
	c0,0.8-0.5,1.5-1.2,1.5h-0.4C193.5,131.2,193.2,131.6,193.3,132z M187.9,146.8c2.1,0,3.6-0.4,3.6-1.6c0-1.2-1.5-1.7-3.6-1.7
	c-2.2,0-3.7,0.4-3.7,1.7C184.2,146.4,185.7,146.8,187.9,146.8z M187.9,131.8c-1.1,0-2,0.9-2,2c0,1.1,0.9,2,2,2c1.1,0,2-0.9,2-2
	C189.8,132.8,188.9,131.8,187.9,131.8z M210.5,132c0.1,0.4,0.4,0.9,0.4,1.7c0,3.1-2.4,5.4-5.8,5.4c-2.1,0-3.8,0.3-3.8,1.3
	c0,0.2,0.1,0.4,0.2,0.5c1.1-0.3,2.1-0.5,3.6-0.5c4.3,0,7.8,1.6,7.8,4.9c0,3.4-3.3,4.9-7.8,4.9c-4.5,0-7.8-1.5-7.8-4.9
	c0-0.9,0.5-1.8,1-2.4c-0.6-0.6-0.9-1.3-0.9-2.2c0-1.7,1.1-3.3,3.2-3.6c-0.9-0.8-1.5-2-1.5-3.4c0-3,2.6-5.3,5.9-5.3
	c1.5,0,2.7,0.5,3.7,1.3c0.6-0.8,1.5-1.3,2.5-1.3h0.4c0.7,0,1.2,0.6,1.2,1.4c0,0.8-0.5,1.5-1.2,1.5h-0.4
	C210.7,131.2,210.4,131.6,210.5,132z M205,146.8c2.1,0,3.6-0.4,3.6-1.6c0-1.2-1.5-1.7-3.6-1.7c-2.2,0-3.7,0.4-3.7,1.7
	C201.4,146.4,202.8,146.8,205,146.8z M205,131.8c-1.1,0-2,0.9-2,2c0,1.1,0.9,2,2,2c1.1,0,2-0.9,2-2C207,132.8,206.1,131.8,205,131.8
	z M222.6,125.7c0-0.9,0.9-1.7,2-1.7H236c0.9,0,1.7,0.8,1.7,1.9c0,1.1-0.8,1.9-1.7,1.9h-9.5v4.7h7.6c0.9,0,1.7,0.8,1.7,1.9
	c0,1.1-0.8,1.9-1.7,1.9h-7.6v7.1c0,0.9-0.9,1.7-2,1.7c-1.1,0-2-0.8-2-1.7V125.7z M249.4,143.3L249.4,143.3c-1.2,1.3-3.1,2.2-5,2.2
	c-4.9,0-6.8-2.6-6.8-5.7c0-3.3,1.9-5.7,6.8-5.7c2.4,0,3.8,1.1,4.6,2l0.1-0.1v-2.1c0-1.1-1.6-2-3.5-2c-1.9,0-3.3,0.4-4.4,0.8
	c-0.8,0.4-1.7-0.1-2-1c-0.4-0.9-0.1-1.8,0.6-2.1c1.6-0.8,3.7-1.3,5.9-1.3c3.9,0,7.5,2.3,7.5,5.6v9.7c0,0.9-0.8,1.6-1.8,1.6
	c-1,0-1.8-0.6-1.8-1.6V143.3z M245.4,137.5c-3,0-3.6,0.9-3.6,2.2c0,1.4,0.7,2.3,3.6,2.3c2.3,0,3.8-1.1,3.8-2.3
	C249.1,138.6,247.7,137.5,245.4,137.5z M265.2,128.5c0.8,0.2,1.5,0.9,1.5,1.8c0,1.1-0.8,1.9-1.9,1.9c-0.2,0-0.4-0.1-1.1-0.1
	c-2.1-0.1-3.8,1.9-3.8,4.2v7.2c0,0.9-0.9,1.7-2,1.7c-1.1,0-2-0.8-2-1.7v-13.4c0-0.9,0.8-1.6,1.8-1.6c1,0,1.8,0.7,1.8,1.6v0.9h0.1
	c0.8-1.4,2-2.7,4.2-2.7C264.2,128.3,264.7,128.4,265.2,128.5z M286.7,135c0-1.6-1.3-2.8-2.8-2.8c-1.6,0-2.8,1.3-2.8,2.8v8.5
	c0,0.9-0.9,1.7-2,1.7c-1.1,0-2-0.7-2-1.7V135c0-1.6-1.2-2.8-2.8-2.8c-1.6,0-2.8,1.3-2.8,2.8v8.5c0,0.9-0.9,1.7-2,1.7
	c-1.1,0-2-0.7-2-1.7v-13.4c0-0.9,0.9-1.6,1.9-1.6c1,0,1.9,0.6,1.9,1.6v1h0.1c0.8-1.2,2-2.8,4.3-2.8c2.1,0,3.4,1.2,4.4,2.8
	c1-1.4,2.6-2.8,4.8-2.8c3.6,0,5.7,2.7,5.7,6.6v8.5c0,0.9-0.9,1.7-2,1.7c-1.1,0-2-0.8-2-1.7V135z M308.9,138.7h-11.1
	c0.7,2,2.5,3.2,4.6,3.2c1.4,0,3.1-0.5,4.1-1.4c0.6-0.6,1.6-0.6,2.3,0.1c0.7,0.6,0.9,1.7,0.4,2.3c-1.7,1.7-4.3,2.6-6.8,2.6
	c-4.9,0-9-3.7-9-8.6c0-4.9,4-8.5,8.8-8.5c4.8,0,8.7,3.8,8.7,8.5C310.9,137.8,310,138.7,308.9,138.7z M306.7,135.3
	c-0.7-2-2.4-3.2-4.4-3.2c-2,0-3.7,1.3-4.4,3.2H306.7z M321.8,128.5c0.8,0.2,1.5,0.9,1.5,1.8c0,1.1-0.8,1.9-1.9,1.9
	c-0.2,0-0.4-0.1-1.1-0.1c-2.1-0.1-3.8,1.9-3.8,4.2v7.2c0,0.9-0.9,1.7-2,1.7c-1.1,0-2-0.8-2-1.7v-13.4c0-0.9,0.8-1.6,1.8-1.6
	c1,0,1.8,0.7,1.8,1.6v0.9h0.1c0.8-1.4,2-2.7,4.2-2.7C320.9,128.3,321.4,128.4,321.8,128.5z M330.9,131.8c-1.7,0-2.5,0.6-2.5,1.5
	c0,1,0.4,1.3,3.3,1.7c4.2,0.6,6.2,2,6.2,5.4c0,3.3-3.2,5.1-7,5.1c-2.3,0-4.4-0.6-6.1-1.5c-0.7-0.4-0.9-1.4-0.5-2.3
	c0.5-0.9,1.4-1.3,2.2-0.9c1.2,0.7,2.7,1,4.4,1.1c1.8,0.1,2.9-0.6,2.9-1.6c0-1.1-0.6-1.5-3.9-2c-3.6-0.5-5.6-2-5.6-5.1
	c0-3.1,2.6-5,6.5-5c1.9,0,3.7,0.4,5.3,1.2c0.7,0.3,1,1.3,0.6,2.1c-0.4,0.9-1.3,1.3-2,0.9C333.7,132,332.3,131.8,330.9,131.8z
	 M353.2,145.5c-4.9,0-8.8-3.7-8.8-8.6c0-4.9,4-8.5,8.8-8.5c4.9,0,8.8,3.7,8.8,8.5C362,141.8,358.1,145.5,353.2,145.5z M353.2,132.1
	c-2.6,0-4.7,2.1-4.7,4.7c0,2.6,2.1,4.8,4.7,4.8c2.7,0,4.7-2.2,4.7-4.8C357.9,134.3,355.8,132.1,353.2,132.1z M370.1,127.2
	c-0.5,0-0.9,0.4-0.9,0.9v0.7h1.4c0.8,0,1.5,0.8,1.5,1.7c0,0.9-0.7,1.7-1.5,1.7h-1.4v11.3c0,0.9-0.9,1.6-2,1.6c-1.1,0-2-0.8-2-1.6
	v-11.3h-0.4c-0.8,0-1.5-0.8-1.5-1.7c0-0.9,0.7-1.7,1.5-1.7h0.4v-0.8c0-2.9,2.3-4.5,4.9-4.5c1.2,0,2.3,0.5,3.2,1.2
	c0.6,0.5,0.7,1.6,0.1,2.4c-0.7,0.8-1.7,0.8-2.4,0.3C370.7,127.4,370.4,127.2,370.1,127.2z M390.6,145.5c-6.2,0-11.2-4.7-11.2-10.9
	c0-6.2,5-10.9,11.2-10.9c6.2,0,11.2,4.7,11.2,10.9C401.8,140.7,396.8,145.5,390.6,145.5z M390.6,127.4c-3.9,0-7.1,3.2-7.1,7.1
	c0,4,3.2,7.1,7.1,7.1c4,0,7.1-3.2,7.1-7.1C397.7,130.6,394.6,127.4,390.6,127.4z M415.5,135.7c0-2-1.5-3.6-3.5-3.6
	c-2,0-3.5,1.6-3.5,3.6v7.8c0,0.9-0.9,1.7-2,1.7c-1.1,0-2-0.7-2-1.7v-13.4c0-0.9,0.9-1.6,1.9-1.6c1,0,1.9,0.6,1.9,1.6v1.2h0.1
	c1-1.5,2.5-3,5-3c3.7,0,6,2.6,6,6.9v8.3c0,0.9-0.9,1.7-2,1.7c-1.1,0-2-0.7-2-1.7V135.7z M423,126.6c0-0.9,0.9-1.6,2-1.6
	c1.1,0,2,0.8,2,1.6v2.2h1.4c0.8,0,1.5,0.8,1.5,1.7c0,0.9-0.7,1.7-1.5,1.7h-1.4v7.9c0,0.6,0.4,1,0.9,1h0.4c0.8,0,1.5,0.8,1.5,1.9
	s-0.7,1.9-1.5,1.9h-0.4c-2.9,0-4.9-1.4-4.9-4.5v-8.2h-0.5c-0.8,0-1.5-0.8-1.5-1.7c0-0.9,0.7-1.7,1.5-1.7h0.5V126.6z M442.7,143.3
	L442.7,143.3c-1.2,1.3-3.1,2.2-5,2.2c-4.9,0-6.8-2.6-6.8-5.7c0-3.3,1.9-5.7,6.8-5.7c2.4,0,3.8,1.1,4.6,2l0.1-0.1v-2.1
	c0-1.1-1.6-2-3.5-2c-1.9,0-3.3,0.4-4.4,0.8c-0.8,0.4-1.7-0.1-2-1c-0.4-0.9-0.1-1.8,0.6-2.1c1.6-0.8,3.7-1.3,5.9-1.3
	c3.9,0,7.5,2.3,7.5,5.6v9.7c0,0.9-0.8,1.6-1.8,1.6s-1.8-0.6-1.8-1.6V143.3z M438.6,137.5c-3,0-3.6,0.9-3.6,2.2
	c0,1.4,0.7,2.3,3.6,2.3c2.3,0,3.8-1.1,3.8-2.3C442.4,138.6,441,137.5,438.6,137.5z M458.4,128.5c0.8,0.2,1.5,0.9,1.5,1.8
	c0,1.1-0.8,1.9-1.9,1.9c-0.2,0-0.4-0.1-1.1-0.1c-2.1-0.1-3.8,1.9-3.8,4.2v7.2c0,0.9-0.9,1.7-2,1.7c-1.1,0-2-0.8-2-1.7v-13.4
	c0-0.9,0.8-1.6,1.8-1.6c1,0,1.8,0.7,1.8,1.6v0.9h0.1c0.8-1.4,2-2.7,4.2-2.7C457.5,128.3,458,128.4,458.4,128.5z M463.9,123.5
	c1.2,0,2.2,1,2.2,2.2c0,1.2-1,2.2-2.2,2.2c-1.2,0-2.2-1-2.2-2.2C461.7,124.4,462.6,123.5,463.9,123.5z M461.9,130.3
	c0-0.9,0.9-1.7,2-1.7c1.1,0,2,0.8,2,1.7v13.3c0,0.9-0.9,1.7-2,1.7c-1.1,0-2-0.8-2-1.7V130.3z M476.9,145.5c-4.9,0-8.8-3.7-8.8-8.6
	c0-4.9,4-8.5,8.8-8.5c4.9,0,8.8,3.7,8.8,8.5C485.8,141.8,481.8,145.5,476.9,145.5z M476.9,132.1c-2.6,0-4.7,2.1-4.7,4.7
	c0,2.6,2.1,4.8,4.7,4.8c2.7,0,4.7-2.2,4.7-4.8C481.6,134.3,479.6,132.1,476.9,132.1z"/>
</svg>
